<svg version="1.1" xmlns="http://www.w3.org/2000/svg" xmlns:xlink="http://www.w3.org/1999/xlink" width="31.86464" height="31.86464" viewBox="0,0,31.86464,31.86464"><g transform="translate(-171.56768,-317.56768)"><g data-paper-data="{&quot;isPaintingLayer&quot;:true}" fill-rule="nonzero" stroke-width="2" stroke-linecap="butt" stroke-linejoin="miter" stroke-miterlimit="10" stroke-dasharray="" stroke-dashoffset="0" style="mix-blend-mode: normal"><path d="M172.56768,333.5c0,-8.24689 6.68543,-14.93232 14.93232,-14.93232c8.24689,0 14.93232,6.68543 14.93232,14.93232c0,8.24689 -6.68543,14.93232 -14.93232,14.93232c-8.24689,0 -14.93232,-6.68543 -14.93232,-14.93232z" fill="#ffffa7" stroke="#000000"/><path d="M177.97456,328.5465c0,-2.13011 1.72681,-3.85692 3.85692,-3.85692c2.13011,0 3.85692,1.72681 3.85692,3.85692c0,2.13011 -1.72681,3.85692 -3.85692,3.85692c-2.13011,0 -3.85692,-1.72681 -3.85692,-3.85692z" fill="#ffffff" stroke="#000000"/><path d="M188.72718,328.5465c0,-2.13013 1.72681,-3.85692 3.85694,-3.85692c2.13011,0 3.85692,1.72679 3.85692,3.85692c0,2.13013 -1.72681,3.85694 -3.85692,3.85694c-2.13011,0 -3.85694,-1.72681 -3.85694,-3.85694z" fill="#ffffff" stroke="#000000"/><path d="M180.77957,328.5465c0,-0.96823 0.7849,-1.75315 1.75315,-1.75315c0.96823,0 1.75315,0.7849 1.75315,1.75315c0,0.96823 -0.7849,1.75315 -1.75315,1.75315c-0.96823,0 -1.75315,-0.7849 -1.75315,-1.75315z" fill="#000000" stroke="none"/><path d="M191.75479,328.5465c0,-0.96823 0.7849,-1.75315 1.75315,-1.75315c0.96825,0 1.75315,0.7849 1.75315,1.75315c0,0.96823 -0.7849,1.75315 -1.75315,1.75315c-0.96825,0 -1.75315,-0.7849 -1.75315,-1.75315z" fill="#000000" stroke="none"/></g></g></svg>